<mxfile host="Electron" modified="2023-12-21T15:33:39.384Z" agent="Mozilla/5.0 (Windows NT 10.0; Win64; x64) AppleWebKit/537.36 (KHTML, like Gecko) draw.io/22.0.3 Chrome/114.0.5735.289 Electron/25.8.4 Safari/537.36" etag="gz-ck2_-m1a_RJEDoTZZ" version="22.0.3" type="device">
  <diagram id="C5RBs43oDa-KdzZeNtuy" name="Page-1">
    <mxGraphModel dx="1446" dy="809" grid="0" gridSize="10" guides="1" tooltips="1" connect="1" arrows="1" fold="1" page="1" pageScale="1" pageWidth="3300" pageHeight="4681" math="0" shadow="0">
      <root>
        <mxCell id="WIyWlLk6GJQsqaUBKTNV-0" />
        <mxCell id="WIyWlLk6GJQsqaUBKTNV-1" parent="WIyWlLk6GJQsqaUBKTNV-0" />
        <mxCell id="tuwSr8e36dJ-7jldxERm-1" value="User" style="swimlane;fontStyle=1;align=center;verticalAlign=top;childLayout=stackLayout;horizontal=1;startSize=26;horizontalStack=0;resizeParent=1;resizeParentMax=0;resizeLast=0;collapsible=0;marginBottom=0;fontSize=17;" parent="WIyWlLk6GJQsqaUBKTNV-1" vertex="1">
          <mxGeometry x="1400" y="1110" width="480" height="249" as="geometry" />
        </mxCell>
        <mxCell id="tuwSr8e36dJ-7jldxERm-2" value="+ userId: int&#xa;+ username: String&#xa;- passwordHash: String&#xa;+ role: String" style="text;strokeColor=none;fillColor=none;align=left;verticalAlign=top;spacingLeft=4;spacingRight=4;overflow=hidden;rotatable=0;points=[[0,0.5],[1,0.5]];portConstraint=eastwest;fontSize=17;" parent="tuwSr8e36dJ-7jldxERm-1" vertex="1">
          <mxGeometry y="26" width="480" height="94" as="geometry" />
        </mxCell>
        <mxCell id="tuwSr8e36dJ-7jldxERm-4" style="line;strokeWidth=1;fillColor=none;align=left;verticalAlign=middle;spacingTop=-1;spacingLeft=3;spacingRight=3;rotatable=0;labelPosition=right;points=[];portConstraint=eastwest;strokeColor=inherit;" parent="tuwSr8e36dJ-7jldxERm-1" vertex="1">
          <mxGeometry y="120" width="480" height="8" as="geometry" />
        </mxCell>
        <mxCell id="tuwSr8e36dJ-7jldxERm-5" value="+ login(username: String, password: String): Boolean&#xa;+ logout(): Void&#xa;- encryptPassword(password: String): String&#xa;- verifyPassword(password: String): String&#xa;+ hasPermission(role: String): Boolean" style="text;strokeColor=none;fillColor=none;align=left;verticalAlign=top;spacingLeft=4;spacingRight=4;overflow=hidden;rotatable=0;points=[[0,0.5],[1,0.5]];portConstraint=eastwest;fontSize=17;" parent="tuwSr8e36dJ-7jldxERm-1" vertex="1">
          <mxGeometry y="128" width="480" height="121" as="geometry" />
        </mxCell>
        <mxCell id="tuwSr8e36dJ-7jldxERm-11" value="Doctor" style="swimlane;fontStyle=1;align=center;verticalAlign=top;childLayout=stackLayout;horizontal=1;startSize=26;horizontalStack=0;resizeParent=1;resizeParentMax=0;resizeLast=0;collapsible=0;marginBottom=0;fontSize=17;" parent="WIyWlLk6GJQsqaUBKTNV-1" vertex="1">
          <mxGeometry x="1370" y="1660" width="590" height="220" as="geometry" />
        </mxCell>
        <mxCell id="tuwSr8e36dJ-7jldxERm-12" value="+ doctorId: int" style="text;strokeColor=none;fillColor=none;align=left;verticalAlign=top;spacingLeft=4;spacingRight=4;overflow=hidden;rotatable=0;points=[[0,0.5],[1,0.5]];portConstraint=eastwest;fontSize=17;" parent="tuwSr8e36dJ-7jldxERm-11" vertex="1">
          <mxGeometry y="26" width="590" height="26" as="geometry" />
        </mxCell>
        <mxCell id="tuwSr8e36dJ-7jldxERm-13" value="+ licenseNumber: string" style="text;strokeColor=none;fillColor=none;align=left;verticalAlign=top;spacingLeft=4;spacingRight=4;overflow=hidden;rotatable=0;points=[[0,0.5],[1,0.5]];portConstraint=eastwest;fontSize=17;" parent="tuwSr8e36dJ-7jldxERm-11" vertex="1">
          <mxGeometry y="52" width="590" height="26" as="geometry" />
        </mxCell>
        <mxCell id="tuwSr8e36dJ-7jldxERm-14" style="line;strokeWidth=1;fillColor=none;align=left;verticalAlign=middle;spacingTop=-1;spacingLeft=3;spacingRight=3;rotatable=0;labelPosition=right;points=[];portConstraint=eastwest;strokeColor=inherit;" parent="tuwSr8e36dJ-7jldxERm-11" vertex="1">
          <mxGeometry y="78" width="590" height="8" as="geometry" />
        </mxCell>
        <mxCell id="tuwSr8e36dJ-7jldxERm-19" value="+ viewPatientInfo(patientId: int): PatientInfo&#xa;+ updatePatientRecord(patientId: int, record: PatientRecord): Void&#xa;+ manageAppointment(): Appointment&#xa; prescribeMedication(): Prescription&#xa;+ orderMedicalTest(): MedicalTest&#xa;+ communicateWithPatient(patientID: int, message: String): Void&#xa;&#xa; " style="text;strokeColor=none;fillColor=none;align=left;verticalAlign=top;spacingLeft=4;spacingRight=4;overflow=hidden;rotatable=0;points=[[0,0.5],[1,0.5]];portConstraint=eastwest;fontSize=17;spacingBottom=-1;spacingTop=0;" parent="tuwSr8e36dJ-7jldxERm-11" vertex="1">
          <mxGeometry y="86" width="590" height="134" as="geometry" />
        </mxCell>
        <mxCell id="tuwSr8e36dJ-7jldxERm-22" value="" style="startArrow=block;startSize=16;startFill=0;endArrow=none;rounded=0;entryX=0.455;entryY=0.005;entryDx=0;entryDy=0;entryPerimeter=0;" parent="WIyWlLk6GJQsqaUBKTNV-1" target="tuwSr8e36dJ-7jldxERm-11" edge="1">
          <mxGeometry relative="1" as="geometry">
            <mxPoint x="1640" y="1360" as="sourcePoint" />
            <mxPoint x="1220" y="460" as="targetPoint" />
          </mxGeometry>
        </mxCell>
        <mxCell id="tuwSr8e36dJ-7jldxERm-23" value="PatientInfo" style="swimlane;fontStyle=1;align=center;verticalAlign=top;childLayout=stackLayout;horizontal=1;startSize=26;horizontalStack=0;resizeParent=1;resizeParentMax=0;resizeLast=0;collapsible=0;marginBottom=0;fontSize=17;" parent="WIyWlLk6GJQsqaUBKTNV-1" vertex="1">
          <mxGeometry x="2050" y="1350" width="480" height="169" as="geometry" />
        </mxCell>
        <mxCell id="tuwSr8e36dJ-7jldxERm-24" value="+ patientId: int&#xa;- medicalHistory: String&#xa;- testResults: List&lt;TestResult&gt;&#xa;- treatmentPlan: String" style="text;strokeColor=none;fillColor=none;align=left;verticalAlign=top;spacingLeft=4;spacingRight=4;overflow=hidden;rotatable=0;points=[[0,0.5],[1,0.5]];portConstraint=eastwest;fontSize=17;" parent="tuwSr8e36dJ-7jldxERm-23" vertex="1">
          <mxGeometry y="26" width="480" height="94" as="geometry" />
        </mxCell>
        <mxCell id="tuwSr8e36dJ-7jldxERm-25" style="line;strokeWidth=1;fillColor=none;align=left;verticalAlign=middle;spacingTop=-1;spacingLeft=3;spacingRight=3;rotatable=0;labelPosition=right;points=[];portConstraint=eastwest;strokeColor=inherit;" parent="tuwSr8e36dJ-7jldxERm-23" vertex="1">
          <mxGeometry y="120" width="480" height="8" as="geometry" />
        </mxCell>
        <mxCell id="tuwSr8e36dJ-7jldxERm-26" value="- displayPatientInfo(patientId: int): PatientInfo" style="text;strokeColor=none;fillColor=none;align=left;verticalAlign=top;spacingLeft=4;spacingRight=4;overflow=hidden;rotatable=0;points=[[0,0.5],[1,0.5]];portConstraint=eastwest;fontSize=17;" parent="tuwSr8e36dJ-7jldxERm-23" vertex="1">
          <mxGeometry y="128" width="480" height="41" as="geometry" />
        </mxCell>
        <mxCell id="tuwSr8e36dJ-7jldxERm-27" value="PatientRecord" style="swimlane;fontStyle=1;align=center;verticalAlign=top;childLayout=stackLayout;horizontal=1;startSize=26;horizontalStack=0;resizeParent=1;resizeParentMax=0;resizeLast=0;collapsible=0;marginBottom=0;fontSize=17;" parent="WIyWlLk6GJQsqaUBKTNV-1" vertex="1">
          <mxGeometry x="2150" y="1670" width="480" height="130" as="geometry" />
        </mxCell>
        <mxCell id="tuwSr8e36dJ-7jldxERm-28" value="+ recordId : int&#xa;- details: String&#xa; " style="text;strokeColor=none;fillColor=none;align=left;verticalAlign=top;spacingLeft=4;spacingRight=4;overflow=hidden;rotatable=0;points=[[0,0.5],[1,0.5]];portConstraint=eastwest;fontSize=17;" parent="tuwSr8e36dJ-7jldxERm-27" vertex="1">
          <mxGeometry y="26" width="480" height="54" as="geometry" />
        </mxCell>
        <mxCell id="tuwSr8e36dJ-7jldxERm-29" style="line;strokeWidth=1;fillColor=none;align=left;verticalAlign=middle;spacingTop=-1;spacingLeft=3;spacingRight=3;rotatable=0;labelPosition=right;points=[];portConstraint=eastwest;strokeColor=inherit;" parent="tuwSr8e36dJ-7jldxERm-27" vertex="1">
          <mxGeometry y="80" width="480" height="8" as="geometry" />
        </mxCell>
        <mxCell id="tuwSr8e36dJ-7jldxERm-30" value="- updatePatientRecord(newDetails: String): Void&#xa; " style="text;strokeColor=none;fillColor=none;align=left;verticalAlign=top;spacingLeft=4;spacingRight=4;overflow=hidden;rotatable=0;points=[[0,0.5],[1,0.5]];portConstraint=eastwest;fontSize=17;" parent="tuwSr8e36dJ-7jldxERm-27" vertex="1">
          <mxGeometry y="88" width="480" height="42" as="geometry" />
        </mxCell>
        <mxCell id="tuwSr8e36dJ-7jldxERm-31" value="Appointment" style="swimlane;fontStyle=1;align=center;verticalAlign=top;childLayout=stackLayout;horizontal=1;startSize=26;horizontalStack=0;resizeParent=1;resizeParentMax=0;resizeLast=0;collapsible=0;marginBottom=0;fontSize=17;" parent="WIyWlLk6GJQsqaUBKTNV-1" vertex="1">
          <mxGeometry x="740" y="1250" width="480" height="250" as="geometry" />
        </mxCell>
        <mxCell id="tuwSr8e36dJ-7jldxERm-32" value="+ appointmentId: int&#xa;+ data: DateTime&#xa;+ time: Time&#xa;+ doctorId: int&#xa;+ patientId: int &#xa;+ status: String" style="text;strokeColor=none;fillColor=none;align=left;verticalAlign=top;spacingLeft=4;spacingRight=4;overflow=hidden;rotatable=0;points=[[0,0.5],[1,0.5]];portConstraint=eastwest;fontSize=17;" parent="tuwSr8e36dJ-7jldxERm-31" vertex="1">
          <mxGeometry y="26" width="480" height="134" as="geometry" />
        </mxCell>
        <mxCell id="tuwSr8e36dJ-7jldxERm-33" style="line;strokeWidth=1;fillColor=none;align=left;verticalAlign=middle;spacingTop=-1;spacingLeft=3;spacingRight=3;rotatable=0;labelPosition=right;points=[];portConstraint=eastwest;strokeColor=inherit;" parent="tuwSr8e36dJ-7jldxERm-31" vertex="1">
          <mxGeometry y="160" width="480" height="8" as="geometry" />
        </mxCell>
        <mxCell id="tuwSr8e36dJ-7jldxERm-34" value="+ create(): Void&#xa;+ reschedule(newDate: DateTime, newTime: Time): Void&#xa;+ cancel(): Void &#xa; " style="text;strokeColor=none;fillColor=none;align=left;verticalAlign=top;spacingLeft=4;spacingRight=4;overflow=hidden;rotatable=0;points=[[0,0.5],[1,0.5]];portConstraint=eastwest;fontSize=17;" parent="tuwSr8e36dJ-7jldxERm-31" vertex="1">
          <mxGeometry y="168" width="480" height="82" as="geometry" />
        </mxCell>
        <mxCell id="tuwSr8e36dJ-7jldxERm-35" value="Prescription" style="swimlane;fontStyle=1;align=center;verticalAlign=top;childLayout=stackLayout;horizontal=1;startSize=26;horizontalStack=0;resizeParent=1;resizeParentMax=0;resizeLast=0;collapsible=0;marginBottom=0;fontSize=17;" parent="WIyWlLk6GJQsqaUBKTNV-1" vertex="1">
          <mxGeometry x="650" y="1670" width="550" height="210" as="geometry" />
        </mxCell>
        <mxCell id="tuwSr8e36dJ-7jldxERm-36" value="+ prescriptionId: int&#xa;+ medication: String&#xa;+ dosage: String&#xa;+ patientId: int&#xa;+ validtyPeriod: DateTime" style="text;strokeColor=none;fillColor=none;align=left;verticalAlign=top;spacingLeft=4;spacingRight=4;overflow=hidden;rotatable=0;points=[[0,0.5],[1,0.5]];portConstraint=eastwest;fontSize=17;" parent="tuwSr8e36dJ-7jldxERm-35" vertex="1">
          <mxGeometry y="26" width="550" height="114" as="geometry" />
        </mxCell>
        <mxCell id="tuwSr8e36dJ-7jldxERm-37" style="line;strokeWidth=1;fillColor=none;align=left;verticalAlign=middle;spacingTop=-1;spacingLeft=3;spacingRight=3;rotatable=0;labelPosition=right;points=[];portConstraint=eastwest;strokeColor=inherit;" parent="tuwSr8e36dJ-7jldxERm-35" vertex="1">
          <mxGeometry y="140" width="550" height="8" as="geometry" />
        </mxCell>
        <mxCell id="tuwSr8e36dJ-7jldxERm-38" value="+ issue(): Void&#xa;- updateMedication(newMedication: String, newDosage: String): Void" style="text;strokeColor=none;fillColor=none;align=left;verticalAlign=top;spacingLeft=4;spacingRight=4;overflow=hidden;rotatable=0;points=[[0,0.5],[1,0.5]];portConstraint=eastwest;fontSize=17;" parent="tuwSr8e36dJ-7jldxERm-35" vertex="1">
          <mxGeometry y="148" width="550" height="62" as="geometry" />
        </mxCell>
        <mxCell id="tuwSr8e36dJ-7jldxERm-39" value="MedicalTest" style="swimlane;fontStyle=1;align=center;verticalAlign=top;childLayout=stackLayout;horizontal=1;startSize=26;horizontalStack=0;resizeParent=1;resizeParentMax=0;resizeLast=0;collapsible=0;marginBottom=0;fontSize=17;" parent="WIyWlLk6GJQsqaUBKTNV-1" vertex="1">
          <mxGeometry x="760" y="2080" width="550" height="210" as="geometry" />
        </mxCell>
        <mxCell id="tuwSr8e36dJ-7jldxERm-40" value="+ testId: int&#xa;+ testName: String&#xa;+ patientId: int&#xa;- result: String&#xa;+ status: String" style="text;strokeColor=none;fillColor=none;align=left;verticalAlign=top;spacingLeft=4;spacingRight=4;overflow=hidden;rotatable=0;points=[[0,0.5],[1,0.5]];portConstraint=eastwest;fontSize=17;" parent="tuwSr8e36dJ-7jldxERm-39" vertex="1">
          <mxGeometry y="26" width="550" height="114" as="geometry" />
        </mxCell>
        <mxCell id="tuwSr8e36dJ-7jldxERm-41" style="line;strokeWidth=1;fillColor=none;align=left;verticalAlign=middle;spacingTop=-1;spacingLeft=3;spacingRight=3;rotatable=0;labelPosition=right;points=[];portConstraint=eastwest;strokeColor=inherit;" parent="tuwSr8e36dJ-7jldxERm-39" vertex="1">
          <mxGeometry y="140" width="550" height="8" as="geometry" />
        </mxCell>
        <mxCell id="tuwSr8e36dJ-7jldxERm-42" value="+ order(): Void&#xa;- receiveResults(newResult: String): Void" style="text;strokeColor=none;fillColor=none;align=left;verticalAlign=top;spacingLeft=4;spacingRight=4;overflow=hidden;rotatable=0;points=[[0,0.5],[1,0.5]];portConstraint=eastwest;fontSize=17;" parent="tuwSr8e36dJ-7jldxERm-39" vertex="1">
          <mxGeometry y="148" width="550" height="62" as="geometry" />
        </mxCell>
        <mxCell id="tuwSr8e36dJ-7jldxERm-47" value="TestResult" style="swimlane;fontStyle=1;align=center;verticalAlign=top;childLayout=stackLayout;horizontal=1;startSize=26;horizontalStack=0;resizeParent=1;resizeParentMax=0;resizeLast=0;collapsible=0;marginBottom=0;fontSize=17;" parent="WIyWlLk6GJQsqaUBKTNV-1" vertex="1">
          <mxGeometry x="2090" y="1140" width="480" height="130" as="geometry" />
        </mxCell>
        <mxCell id="tuwSr8e36dJ-7jldxERm-48" value="+ resultId : int&#xa;- details: String&#xa; " style="text;strokeColor=none;fillColor=none;align=left;verticalAlign=top;spacingLeft=4;spacingRight=4;overflow=hidden;rotatable=0;points=[[0,0.5],[1,0.5]];portConstraint=eastwest;fontSize=17;" parent="tuwSr8e36dJ-7jldxERm-47" vertex="1">
          <mxGeometry y="26" width="480" height="54" as="geometry" />
        </mxCell>
        <mxCell id="tuwSr8e36dJ-7jldxERm-49" style="line;strokeWidth=1;fillColor=none;align=left;verticalAlign=middle;spacingTop=-1;spacingLeft=3;spacingRight=3;rotatable=0;labelPosition=right;points=[];portConstraint=eastwest;strokeColor=inherit;" parent="tuwSr8e36dJ-7jldxERm-47" vertex="1">
          <mxGeometry y="80" width="480" height="8" as="geometry" />
        </mxCell>
        <mxCell id="tuwSr8e36dJ-7jldxERm-50" value="- updateResultDetails(newDetails: String): Void&#xa; " style="text;strokeColor=none;fillColor=none;align=left;verticalAlign=top;spacingLeft=4;spacingRight=4;overflow=hidden;rotatable=0;points=[[0,0.5],[1,0.5]];portConstraint=eastwest;fontSize=17;" parent="tuwSr8e36dJ-7jldxERm-47" vertex="1">
          <mxGeometry y="88" width="480" height="42" as="geometry" />
        </mxCell>
        <mxCell id="tuwSr8e36dJ-7jldxERm-55" value="Communication" style="swimlane;fontStyle=1;align=center;verticalAlign=top;childLayout=stackLayout;horizontal=1;startSize=26;horizontalStack=0;resizeParent=1;resizeParentMax=0;resizeLast=0;collapsible=0;marginBottom=0;fontSize=17;" parent="WIyWlLk6GJQsqaUBKTNV-1" vertex="1">
          <mxGeometry x="1460" y="2110" width="550" height="210" as="geometry" />
        </mxCell>
        <mxCell id="tuwSr8e36dJ-7jldxERm-56" value="+ communicationId: int&#xa;+ doctorId: int&#xa;+ patientId: int&#xa;+ message: String&#xa;+ timestamp: DateTiem" style="text;strokeColor=none;fillColor=none;align=left;verticalAlign=top;spacingLeft=4;spacingRight=4;overflow=hidden;rotatable=0;points=[[0,0.5],[1,0.5]];portConstraint=eastwest;fontSize=17;" parent="tuwSr8e36dJ-7jldxERm-55" vertex="1">
          <mxGeometry y="26" width="550" height="114" as="geometry" />
        </mxCell>
        <mxCell id="tuwSr8e36dJ-7jldxERm-57" style="line;strokeWidth=1;fillColor=none;align=left;verticalAlign=middle;spacingTop=-1;spacingLeft=3;spacingRight=3;rotatable=0;labelPosition=right;points=[];portConstraint=eastwest;strokeColor=inherit;" parent="tuwSr8e36dJ-7jldxERm-55" vertex="1">
          <mxGeometry y="140" width="550" height="8" as="geometry" />
        </mxCell>
        <mxCell id="tuwSr8e36dJ-7jldxERm-58" value="+ sendMessage(): Void&#xa;- receiveMessage(): String" style="text;strokeColor=none;fillColor=none;align=left;verticalAlign=top;spacingLeft=4;spacingRight=4;overflow=hidden;rotatable=0;points=[[0,0.5],[1,0.5]];portConstraint=eastwest;fontSize=17;" parent="tuwSr8e36dJ-7jldxERm-55" vertex="1">
          <mxGeometry y="148" width="550" height="62" as="geometry" />
        </mxCell>
        <mxCell id="tuwSr8e36dJ-7jldxERm-62" value="Check and Update" style="startArrow=none;endArrow=none;rounded=0;exitX=0.932;exitY=0.002;exitDx=0;exitDy=0;exitPerimeter=0;fontSize=15;" parent="WIyWlLk6GJQsqaUBKTNV-1" source="tuwSr8e36dJ-7jldxERm-11" edge="1">
          <mxGeometry relative="1" as="geometry">
            <Array as="points">
              <mxPoint x="1920" y="1399" />
            </Array>
            <mxPoint x="1919.2900000000004" y="1649.6599999999999" as="sourcePoint" />
            <mxPoint x="2040" y="1399" as="targetPoint" />
          </mxGeometry>
        </mxCell>
        <mxCell id="tuwSr8e36dJ-7jldxERm-63" value="&lt;font style=&quot;font-size: 17px;&quot;&gt;1&lt;/font&gt;" style="text;html=1;align=center;verticalAlign=middle;resizable=0;points=[];autosize=1;strokeColor=none;fillColor=none;" parent="WIyWlLk6GJQsqaUBKTNV-1" vertex="1">
          <mxGeometry x="1600" y="1370" width="30" height="30" as="geometry" />
        </mxCell>
        <mxCell id="tuwSr8e36dJ-7jldxERm-64" value="&lt;font style=&quot;font-size: 17px;&quot;&gt;1&lt;/font&gt;" style="text;html=1;align=center;verticalAlign=middle;resizable=0;points=[];autosize=1;strokeColor=none;fillColor=none;" parent="WIyWlLk6GJQsqaUBKTNV-1" vertex="1">
          <mxGeometry x="1600" y="1630" width="30" height="30" as="geometry" />
        </mxCell>
        <mxCell id="tuwSr8e36dJ-7jldxERm-72" value="Check and Update" style="startArrow=none;endArrow=none;rounded=0;entryX=1.001;entryY=0.129;entryDx=0;entryDy=0;entryPerimeter=0;fontSize=15;" parent="WIyWlLk6GJQsqaUBKTNV-1" target="tuwSr8e36dJ-7jldxERm-19" edge="1">
          <mxGeometry relative="1" as="geometry">
            <mxPoint x="2150" y="1763" as="sourcePoint" />
            <mxPoint x="1990" y="1200" as="targetPoint" />
          </mxGeometry>
        </mxCell>
        <mxCell id="tuwSr8e36dJ-7jldxERm-77" value="manage" style="startArrow=none;endArrow=none;rounded=0;fontSize=15;entryX=1.002;entryY=0.886;entryDx=0;entryDy=0;entryPerimeter=0;" parent="WIyWlLk6GJQsqaUBKTNV-1" target="tuwSr8e36dJ-7jldxERm-36" edge="1">
          <mxGeometry relative="1" as="geometry">
            <mxPoint x="1370" y="1797" as="sourcePoint" />
            <mxPoint x="1200" y="1785" as="targetPoint" />
          </mxGeometry>
        </mxCell>
        <mxCell id="tuwSr8e36dJ-7jldxERm-79" value="manage" style="startArrow=none;endArrow=none;rounded=0;fontSize=15;entryX=1.007;entryY=0.928;entryDx=0;entryDy=0;entryPerimeter=0;" parent="WIyWlLk6GJQsqaUBKTNV-1" target="tuwSr8e36dJ-7jldxERm-32" edge="1">
          <mxGeometry relative="1" as="geometry">
            <Array as="points">
              <mxPoint x="1440" y="1400" />
              <mxPoint x="1310" y="1400" />
            </Array>
            <mxPoint x="1440" y="1660" as="sourcePoint" />
            <mxPoint x="1510" y="1400" as="targetPoint" />
          </mxGeometry>
        </mxCell>
        <mxCell id="tuwSr8e36dJ-7jldxERm-80" value="&lt;font style=&quot;font-size: 17px;&quot;&gt;1&lt;/font&gt;" style="text;html=1;align=center;verticalAlign=middle;resizable=0;points=[];autosize=1;strokeColor=none;fillColor=none;" parent="WIyWlLk6GJQsqaUBKTNV-1" vertex="1">
          <mxGeometry x="1875" y="1630" width="30" height="30" as="geometry" />
        </mxCell>
        <mxCell id="tuwSr8e36dJ-7jldxERm-81" value="&lt;font style=&quot;font-size: 17px;&quot;&gt;n&lt;/font&gt;" style="text;html=1;align=center;verticalAlign=middle;resizable=0;points=[];autosize=1;strokeColor=none;fillColor=none;" parent="WIyWlLk6GJQsqaUBKTNV-1" vertex="1">
          <mxGeometry x="2015" y="1370" width="30" height="30" as="geometry" />
        </mxCell>
        <mxCell id="tuwSr8e36dJ-7jldxERm-82" value="&lt;font style=&quot;font-size: 17px;&quot;&gt;1&lt;/font&gt;" style="text;html=1;align=center;verticalAlign=middle;resizable=0;points=[];autosize=1;strokeColor=none;fillColor=none;" parent="WIyWlLk6GJQsqaUBKTNV-1" vertex="1">
          <mxGeometry x="1960" y="1730" width="30" height="30" as="geometry" />
        </mxCell>
        <mxCell id="tuwSr8e36dJ-7jldxERm-83" value="&lt;font style=&quot;font-size: 17px;&quot;&gt;n&lt;/font&gt;" style="text;html=1;align=center;verticalAlign=middle;resizable=0;points=[];autosize=1;strokeColor=none;fillColor=none;" parent="WIyWlLk6GJQsqaUBKTNV-1" vertex="1">
          <mxGeometry x="2120" y="1730" width="30" height="30" as="geometry" />
        </mxCell>
        <mxCell id="tuwSr8e36dJ-7jldxERm-84" value="&lt;font style=&quot;font-size: 17px;&quot;&gt;1&lt;/font&gt;" style="text;html=1;align=center;verticalAlign=middle;resizable=0;points=[];autosize=1;strokeColor=none;fillColor=none;" parent="WIyWlLk6GJQsqaUBKTNV-1" vertex="1">
          <mxGeometry x="1340" y="1770" width="30" height="30" as="geometry" />
        </mxCell>
        <mxCell id="tuwSr8e36dJ-7jldxERm-85" value="&lt;font style=&quot;font-size: 17px;&quot;&gt;n&lt;/font&gt;" style="text;html=1;align=center;verticalAlign=middle;resizable=0;points=[];autosize=1;strokeColor=none;fillColor=none;" parent="WIyWlLk6GJQsqaUBKTNV-1" vertex="1">
          <mxGeometry x="1200" y="1770" width="30" height="30" as="geometry" />
        </mxCell>
        <mxCell id="tuwSr8e36dJ-7jldxERm-86" value="&lt;font style=&quot;font-size: 17px;&quot;&gt;1&lt;/font&gt;" style="text;html=1;align=center;verticalAlign=middle;resizable=0;points=[];autosize=1;strokeColor=none;fillColor=none;" parent="WIyWlLk6GJQsqaUBKTNV-1" vertex="1">
          <mxGeometry x="1440" y="1630" width="30" height="30" as="geometry" />
        </mxCell>
        <mxCell id="tuwSr8e36dJ-7jldxERm-87" value="&lt;font style=&quot;font-size: 17px;&quot;&gt;n&lt;/font&gt;" style="text;html=1;align=center;verticalAlign=middle;resizable=0;points=[];autosize=1;strokeColor=none;fillColor=none;" parent="WIyWlLk6GJQsqaUBKTNV-1" vertex="1">
          <mxGeometry x="1220" y="1400" width="30" height="30" as="geometry" />
        </mxCell>
        <mxCell id="tuwSr8e36dJ-7jldxERm-89" value="Commuincate" style="startArrow=none;endArrow=none;rounded=0;fontSize=15;entryX=0.4;entryY=0.002;entryDx=0;entryDy=0;entryPerimeter=0;" parent="WIyWlLk6GJQsqaUBKTNV-1" target="tuwSr8e36dJ-7jldxERm-55" edge="1">
          <mxGeometry relative="1" as="geometry">
            <mxPoint x="1680" y="1880" as="sourcePoint" />
            <mxPoint x="1240" y="1970" as="targetPoint" />
          </mxGeometry>
        </mxCell>
        <mxCell id="tuwSr8e36dJ-7jldxERm-91" value="order and receive" style="startArrow=none;endArrow=none;rounded=0;exitX=0.932;exitY=0.002;exitDx=0;exitDy=0;exitPerimeter=0;fontSize=15;" parent="WIyWlLk6GJQsqaUBKTNV-1" edge="1">
          <mxGeometry relative="1" as="geometry">
            <Array as="points">
              <mxPoint x="1251" y="1855" />
            </Array>
            <mxPoint x="1251" y="2080" as="sourcePoint" />
            <mxPoint x="1370" y="1855" as="targetPoint" />
          </mxGeometry>
        </mxCell>
        <mxCell id="tuwSr8e36dJ-7jldxERm-92" value="&lt;font style=&quot;font-size: 17px;&quot;&gt;1&lt;/font&gt;" style="text;html=1;align=center;verticalAlign=middle;resizable=0;points=[];autosize=1;strokeColor=none;fillColor=none;" parent="WIyWlLk6GJQsqaUBKTNV-1" vertex="1">
          <mxGeometry x="1340" y="1860" width="30" height="30" as="geometry" />
        </mxCell>
        <mxCell id="tuwSr8e36dJ-7jldxERm-93" value="&lt;font style=&quot;font-size: 17px;&quot;&gt;n&lt;/font&gt;" style="text;html=1;align=center;verticalAlign=middle;resizable=0;points=[];autosize=1;strokeColor=none;fillColor=none;" parent="WIyWlLk6GJQsqaUBKTNV-1" vertex="1">
          <mxGeometry x="1220" y="2050" width="30" height="30" as="geometry" />
        </mxCell>
        <mxCell id="tuwSr8e36dJ-7jldxERm-94" value="&lt;font style=&quot;font-size: 17px;&quot;&gt;1&lt;/font&gt;" style="text;html=1;align=center;verticalAlign=middle;resizable=0;points=[];autosize=1;strokeColor=none;fillColor=none;" parent="WIyWlLk6GJQsqaUBKTNV-1" vertex="1">
          <mxGeometry x="1645" y="1880" width="30" height="30" as="geometry" />
        </mxCell>
        <mxCell id="tuwSr8e36dJ-7jldxERm-95" value="&lt;font style=&quot;font-size: 17px;&quot;&gt;n&lt;/font&gt;" style="text;html=1;align=center;verticalAlign=middle;resizable=0;points=[];autosize=1;strokeColor=none;fillColor=none;" parent="WIyWlLk6GJQsqaUBKTNV-1" vertex="1">
          <mxGeometry x="1645" y="2080" width="30" height="30" as="geometry" />
        </mxCell>
        <mxCell id="tuwSr8e36dJ-7jldxERm-96" value="" style="curved=1;startArrow=diamondThin;startSize=14;startFill=0;endArrow=none;rounded=0;" parent="WIyWlLk6GJQsqaUBKTNV-1" edge="1">
          <mxGeometry relative="1" as="geometry">
            <Array as="points" />
            <mxPoint x="2280" y="1350" as="sourcePoint" />
            <mxPoint x="2280" y="1270" as="targetPoint" />
          </mxGeometry>
        </mxCell>
        <mxCell id="tuwSr8e36dJ-7jldxERm-97" value="&lt;font style=&quot;font-size: 17px;&quot;&gt;1&lt;/font&gt;" style="text;html=1;align=center;verticalAlign=middle;resizable=0;points=[];autosize=1;strokeColor=none;fillColor=none;" parent="WIyWlLk6GJQsqaUBKTNV-1" vertex="1">
          <mxGeometry x="2250" y="1329" width="30" height="30" as="geometry" />
        </mxCell>
        <mxCell id="tuwSr8e36dJ-7jldxERm-98" value="&lt;font style=&quot;font-size: 17px;&quot;&gt;n&lt;/font&gt;" style="text;html=1;align=center;verticalAlign=middle;resizable=0;points=[];autosize=1;strokeColor=none;fillColor=none;" parent="WIyWlLk6GJQsqaUBKTNV-1" vertex="1">
          <mxGeometry x="2250" y="1270" width="30" height="30" as="geometry" />
        </mxCell>
      </root>
    </mxGraphModel>
  </diagram>
</mxfile>
